<svg width="85" height="19" viewBox="0 0 85 19" fill="none" xmlns="http://www.w3.org/2000/svg">
<path d="M14.212 18.816L13.084 17.424C12.508 17.68 11.9 17.88 11.26 18.024C10.62 18.184 9.948 18.264 9.244 18.264C7.996 18.264 6.836 18.048 5.764 17.616C4.692 17.168 3.748 16.552 2.932 15.768C2.132 14.968 1.5 14.048 1.036 13.008C0.588 11.952 0.364 10.816 0.364 9.6C0.364 8.384 0.588 7.256 1.036 6.216C1.5 5.16 2.132 4.24 2.932 3.456C3.748 2.656 4.692 2.04 5.764 1.608C6.836 1.16 7.996 0.935999 9.244 0.935999C10.492 0.935999 11.652 1.16 12.724 1.608C13.812 2.04 14.756 2.656 15.556 3.456C16.372 4.24 17.004 5.16 17.452 6.216C17.9 7.256 18.124 8.384 18.124 9.6C18.124 10.8 17.892 11.928 17.428 12.984C16.98 14.024 16.364 14.936 15.58 15.72L17.26 17.808L14.212 18.816ZM9.244 15.072C9.564 15.072 9.86 15.048 10.132 15C10.42 14.936 10.692 14.848 10.948 14.736L9.148 12.48L12.172 11.472L13.42 13.008C13.788 12.544 14.068 12.024 14.26 11.448C14.468 10.872 14.572 10.256 14.572 9.6C14.572 8.816 14.436 8.096 14.164 7.44C13.892 6.768 13.516 6.192 13.036 5.712C12.556 5.216 11.996 4.832 11.356 4.56C10.716 4.272 10.012 4.128 9.244 4.128C8.492 4.128 7.788 4.272 7.132 4.56C6.492 4.832 5.932 5.216 5.452 5.712C4.988 6.192 4.62 6.768 4.348 7.44C4.076 8.096 3.94 8.816 3.94 9.6C3.94 10.368 4.076 11.088 4.348 11.76C4.62 12.432 4.988 13.016 5.452 13.512C5.932 13.992 6.492 14.376 7.132 14.664C7.788 14.936 8.492 15.072 9.244 15.072ZM20.2954 18V1.2H28.5034C29.6394 1.2 30.6394 1.424 31.5034 1.872C32.3834 2.304 33.0634 2.912 33.5434 3.696C34.0394 4.48 34.2874 5.384 34.2874 6.408C34.2874 7.48 33.9914 8.424 33.3994 9.24C32.8074 10.056 32.0154 10.664 31.0234 11.064L34.7434 18H30.8554L27.5674 11.568H23.7754V18H20.2954ZM23.7754 8.712H28.1914C28.9754 8.712 29.5994 8.504 30.0634 8.088C30.5434 7.672 30.7834 7.128 30.7834 6.456C30.7834 5.784 30.5434 5.24 30.0634 4.824C29.5994 4.408 28.9754 4.2 28.1914 4.2H23.7754V8.712ZM40.9326 18V1.2H44.4126V7.968H52.1406V1.2H55.6206V18H52.1406V11.112H44.4126V18H40.9326ZM58.2188 18V5.496H61.5068V18H58.2188ZM59.8508 4.008C59.3388 4.008 58.8988 3.824 58.5308 3.456C58.1628 3.088 57.9788 2.648 57.9788 2.136C57.9788 1.608 58.1628 1.168 58.5308 0.816C58.8988 0.447999 59.3388 0.263999 59.8508 0.263999C60.3788 0.263999 60.8188 0.447999 61.1708 0.816C61.5388 1.168 61.7228 1.608 61.7228 2.136C61.7228 2.648 61.5388 3.088 61.1708 3.456C60.8188 3.824 60.3788 4.008 59.8508 4.008ZM63.8382 18V5.496H67.1262V6.888C67.5262 6.344 68.0062 5.928 68.5662 5.64C69.1262 5.352 69.7582 5.208 70.4622 5.208C71.0702 5.224 71.5262 5.32 71.8302 5.496V8.376C71.5902 8.264 71.3262 8.184 71.0382 8.136C70.7502 8.072 70.4542 8.04 70.1502 8.04C69.5102 8.04 68.9262 8.2 68.3982 8.52C67.8702 8.84 67.4462 9.296 67.1262 9.888V18H63.8382ZM79.0229 18.24C77.7749 18.24 76.6389 17.952 75.6149 17.376C74.6069 16.8 73.8069 16.024 73.2149 15.048C72.6229 14.072 72.3269 12.976 72.3269 11.76C72.3269 10.544 72.6069 9.448 73.1669 8.472C73.7429 7.496 74.5189 6.72 75.4949 6.144C76.4709 5.568 77.5589 5.28 78.7589 5.28C79.9589 5.28 81.0229 5.576 81.9509 6.168C82.8789 6.76 83.6069 7.56 84.1349 8.568C84.6789 9.576 84.9509 10.72 84.9509 12V12.864H75.6869C75.8309 13.36 76.0629 13.808 76.3829 14.208C76.7189 14.608 77.1269 14.92 77.6069 15.144C78.1029 15.368 78.6309 15.48 79.1909 15.48C79.7509 15.48 80.2629 15.392 80.7269 15.216C81.2069 15.04 81.6149 14.792 81.9509 14.472L84.1109 16.44C83.3429 17.064 82.5509 17.52 81.7349 17.808C80.9349 18.096 80.0309 18.24 79.0229 18.24ZM75.6389 10.512H81.7109C81.5989 10.016 81.3909 9.584 81.0869 9.216C80.7989 8.832 80.4469 8.536 80.0309 8.328C79.6309 8.104 79.1829 7.992 78.6869 7.992C78.1749 7.992 77.7109 8.096 77.2949 8.304C76.8789 8.512 76.5269 8.808 76.2389 9.192C75.9669 9.56 75.7669 10 75.6389 10.512Z" fill="#202430"/>
</svg>
