<svg width="634" height="850" viewBox="0 0 634 850" fill="none" xmlns="http://www.w3.org/2000/svg">
<path opacity="0.7" d="M649 437.244L1164.76 183.214L1164.76 493.252L649.224 745.484L649 437.244Z" fill="#E8E8E8" stroke="#C7ACF2" stroke-width="4"/>
<path d="M656.973 -35.6173L1226.01 -315.758L1348.48 -64.6564L657.229 272.488L656.973 -35.6173Z" fill="#E8E8E8" stroke="#C7ACF2" stroke-width="4"/>
<path d="M499.004 167.244L1014.77 -86.7855L1014.77 263.252L499.228 515.484L499.004 167.244Z" fill="#E8E8E8" stroke="#C7ACF2" stroke-width="4"/>
<path d="M230.004 534.244L745.766 280.214L745.766 590.252L230.228 842.484L230.004 534.244Z" fill="#E8E8E8" stroke="#C7ACF2" stroke-width="4"/>
<path d="M-274.028 670.383L295.007 390.242L417.478 641.344L-273.772 978.488L-274.028 670.383Z" fill="#E8E8E8" stroke="#C7ACF2" stroke-width="4"/>
<path d="M-407.995 975.244L107.767 721.214L107.767 1071.25L-407.771 1323.48L-407.995 975.244Z" fill="#E8E8E8" stroke="#C7ACF2" stroke-width="4"/>
</svg>
